PathFileType	4	(X/Y/Z)	C:/Users/opensim2020/Desktop/walking_exp_matlab/subject02_walking12_straight_01.trc																																																																																																																												
DataRate	CameraRate	NumFrames	NumMarkers	Units	OrigDataRate	OrigDataStartFrame	OrigNumFrames																																																																																																																								
100	100	4	42	mm	100	563	178																																																																																																																								
Frame#	Time	LFHD			RFHD			LBHD			RBHD			C7			T10			CLAV			STRN			RBAK			LSHO			LUPA			LELB			LFRM			LWRA			LWRB			LFIN			RSHO			RUPA			RELB			RFRM			RWRA			RWRB			RFIN			LASI			RASI			LPSI			RPSI			LTHI			LKNE			LTIB			LANK			LHEE			LTOE			RTHI			RKNE			RTIB			RANK			RHEE			RTOE			*39			*40			*41		
		X1	Y1	Z1	X2	Y2	Z2	X3	Y3	Z3	X4	Y4	Z4	X5	Y5	Z5	X6	Y6	Z6	X7	Y7	Z7	X8	Y8	Z8	X9	Y9	Z9	X10	Y10	Z10	X11	Y11	Z11	X12	Y12	Z12	X13	Y13	Z13	X14	Y14	Z14	X15	Y15	Z15	X16	Y16	Z16	X17	Y17	Z17	X18	Y18	Z18	X19	Y19	Z19	X20	Y20	Z20	X21	Y21	Z21	X22	Y22	Z22	X23	Y23	Z23	X24	Y24	Z24	X25	Y25	Z25	X26	Y26	Z26	X27	Y27	Z27	X28	Y28	Z28	X29	Y29	Z29	X30	Y30	Z30	X31	Y31	Z31	X32	Y32	Z32	X33	Y33	Z33	X34	Y34	Z34	X35	Y35	Z35	X36	Y36	Z36	X37	Y37	Z37	X38	Y38	Z38	X39	Y39	Z39	X40	Y40	Z40	X41	Y41	Z41	X42	Y42	Z42
																																																																																																																															
67	0.66	-525.82062	1721.21863	-1069.63782	-535.31897	1700.86133	-927.26825	-639.04297	1623.34839	-1090.30066	-659.60944	1598.63135	-949.76239	-684.15417	1491.14563	-1019.9494	-739.70599	1218.10852	-1017.92297	-543.3808	1421.11536	-1030.85986	-494.31842	1248.92383	-1014.74042	-743.23938	1321.20471	-954.67889	-613.21808	1459.4425	-1201.30383	-681.0481	1269.57959	-1274.8219	-729.7193	1138.37842	-1280.87439	-771.91632	1014.99554	-1296.93396	-768.38934	875.42743	-1271.67773	-810.24976	897.73956	-1303.5415	-823.37274	830.72833	-1303.36328	-602.13336	1459.59607	-834.04041	-603.71222	1272.453	-741.61768	-554.79144	1131.99475	-714.30817	-478.01743	1035.75977	-710.08179	-384.1683	945.53217	-747.67566	-419.17514	919.41711	-709.65625	-356.23267	884.15234	-715.93616	-488.01166	965.53448	-1131.28003	-527.91022	935.89417	-874.69781	-709.43134	1003.01367	-1081.87854	-730.52966	996.28723	-971.95441	-469.40506	673.22021	-1211.68408	-429.99323	478.21097	-1184.05603	-432.94345	284.84299	-1196.68298	-384.01547	67.92031	-1172.59277	-420.78992	38.83845	-1124.66846	-227.56363	42.91433	-1165.66223	-705.0899	658.03119	-820.79541	-770.27808	459.85358	-843.37762	-909.03845	330.37128	-845.06012	-1028.0072	177.16052	-878.35425	-1075.45557	154.07813	-939.44257	-946.427	31.12314	-870.19135	-646.05304	1764.21448	-988.96887	2845.14355	1034.22803	-3360.33862	NaN	NaN	NaN
68	0.67	-513.31793	1723.10425	-1072.22693	-523.1958	1702.4812	-929.88342	-626.72449	1625.50513	-1093.29517	-647.97522	1600.62329	-952.83215	-671.55023	1492.41418	-1023.17328	-725.2829	1218.44897	-1020.75787	-530.90686	1423.35596	-1033.79639	-480.24243	1251.75098	-1018.46405	-729.92902	1321.2113	-958.26617	-600.16901	1461.32751	-1204.6416	-665.00745	1269.98267	-1278.44482	-711.85132	1138.15613	-1283.64417	-752.96191	1014.77808	-1299.95837	-748.70361	875.05151	-1274.05994	-790.17139	897.07428	-1306.70251	-803.48859	829.95795	-1306.07068	-590.32288	1460.93689	-836.74298	-592.13617	1273.60815	-744.8327	-545.26019	1133.06262	-717.36493	-468.1358	1036.63489	-712.72852	-373.95044	945.80737	-749.35675	-409.56421	919.98865	-712.44775	-346.81992	884.55524	-718.34863	-472.76498	967.66791	-1135.73352	-510.71277	937.10468	-880.48785	-693.86475	1005.59436	-1085.13074	-713.85394	998.01422	-973.64148	-455.87436	674.47144	-1214.0929	-414.03214	479.85696	-1184.37512	-421.37546	286.80719	-1200.13574	-381.76675	68.77252	-1171.49963	-419.24496	39.57751	-1123.75867	-225.4832	40.32686	-1166.91187	-686.91827	658.56189	-823.54156	-748.0835	459.6525	-841.75745	-889.89044	334.08627	-843.6001	-1012.80524	184.38791	-877.00067	-1059.81348	165.12831	-938.91223	-943.88934	31.10234	-871.4079	-633.57343	1766.27466	-991.60303	NaN	NaN	NaN	NaN	NaN	NaN
69	0.68	-500.97437	1724.61536	-1074.50977	-510.99939	1704.20435	-932.57477	-614.42548	1627.68115	-1096.21399	-635.76257	1603.00684	-955.81848	-659.49146	1493.81653	-1025.9646	-711.05017	1218.96851	-1023.51111	-518.44409	1425.71436	-1036.55603	-466.23114	1254.49744	-1022.01251	-716.73297	1321.69019	-961.53778	-587.25824	1463.44702	-1207.62927	-648.66803	1270.57043	-1281.33643	-693.64252	1138.15649	-1286.50183	-733.13562	1014.45129	-1303.20691	-728.44171	874.80817	-1276.09436	-769.18127	896.25684	-1309.85767	-782.4621	829.16119	-1308.77124	-578.85229	1462.63794	-839.5473	-582.13354	1275.01563	-748.15375	-534.42871	1134.20264	-720.41614	-458.12631	1037.58044	-715.81067	-364.51541	946.34265	-751.90643	-400.4028	920.60583	-715.18549	-337.59525	884.88898	-720.63538	-458.01392	969.98169	-1140.06104	-493.95911	938.3811	-886.54236	-678.83691	1008.05872	-1088.21521	-697.52124	999.64203	-974.79694	-441.52161	675.78625	-1216.22156	-401.242	480.2735	-1184.59851	-411.74985	287.48615	-1202.07288	-379.58368	69.14176	-1170.84961	-418.58325	39.88426	-1123.82324	-223.72156	38.27506	-1165.16077	-667.44867	658.37836	-826.14301	-724.0575	458.42691	-841.36823	-869.20093	336.94238	-842.19983	-995.42047	190.98625	-875.33527	-1042.65759	176.19882	-938.41602	-940.66394	31.50973	-873.02789	-621.05902	1768.25952	-994.2536	NaN	NaN	NaN	NaN	NaN	NaN
70	0.69	-488.41351	1726.5304	-1077.16663	-498.97754	1705.92212	-935.00598	-602.08698	1629.46313	-1098.39172	-623.8573	1605.03723	-958.66302	-647.41187	1494.89099	-1028.69141	-697.24475	1219.729	-1026.23523	-505.87637	1427.99182	-1039.25757	-452.31223	1257.15698	-1025.46204	-703.46906	1322.19153	-964.62396	-574.61053	1465.52319	-1210.28467	-632.40076	1271.43799	-1284.60376	-675.16809	1138.34705	-1289.47888	-712.94678	1014.35303	-1306.29456	-706.85632	874.56622	-1278.81128	-747.21893	895.58008	-1313.38135	-760.30737	828.24561	-1311.70557	-566.73553	1464.22339	-842.20673	-570.77124	1276.47302	-751.39587	-524.38519	1135.59998	-723.46039	-448.55698	1038.46497	-718.70801	-355.44943	946.76215	-754.31152	-391.65213	921.09338	-717.8642	-329.24179	885.21954	-723.17657	-443.75949	972.32397	-1144.32764	-477.81952	939.68036	-892.49243	-664.35614	1010.30377	-1090.91956	-681.93799	1001.3656	-975.8548	-426.87775	676.95587	-1217.99756	-389.80823	480.33374	-1185.54675	-404.03931	287.46024	-1202.26831	-377.62466	69.02937	-1170.50989	-417.55515	40.05618	-1123.37158	-222.22261	37.28082	-1163.8988	-647.15454	657.13251	-828.83954	-699.38165	456.36594	-841.29333	-846.65833	339.11432	-841.40155	-977.3783	198.03749	-873.84033	-1025.30566	188.12971	-937.3927	-934.7533	34.69739	-874.25189	-608.79266	1770.22156	-997.03241	2845.96436	1034.30286	-3356.89136	NaN	NaN	NaN
